<svg data-v-fde0c5aa="" xmlns="http://www.w3.org/2000/svg" viewBox="0 0 300 300" class="iconLeft"><!----><defs data-v-fde0c5aa=""><linearGradient data-v-fde0c5aa="" gradientTransform="rotate(25)" id="f9b62cdc-d489-4ae3-b588-a7788626ec0e" x1="0%" y1="0%" x2="100%" y2="0%"><stop data-v-fde0c5aa="" offset="0%" stop-color="#3D1755" stop-opacity="1"></stop><stop data-v-fde0c5aa="" offset="100%" stop-color="#DAC1A5" stop-opacity="1"></stop></linearGradient></defs><rect data-v-fde0c5aa="" fill="url(#f9b62cdc-d489-4ae3-b588-a7788626ec0e)" x="0" y="0" width="300px" height="300px" class="logo-background-square"></rect><defs data-v-fde0c5aa=""><!----></defs><g data-v-fde0c5aa="" id="294a39a9-beaa-462e-ab79-630962485d03" fill="#ffffff" transform="matrix(1.7838664054870605,0,0,1.7838664054870605,81.55760998943971,132.19617672301698)"><path d="M4.45 3.72C2.60 3.72 0.99 4.77 0.99 6.55C0.99 8.33 2.24 9.02 4.21 9.49C5.64 9.83 6.15 10.30 6.15 11.12C6.15 11.86 5.45 12.33 4.56 12.33C3.58 12.33 2.77 11.79 2.56 10.72L0.59 10.72C0.77 12.75 2.28 13.78 4.59 13.78C6.50 13.78 8.16 12.74 8.16 10.92C8.16 9.37 7.21 8.39 5.08 7.90C3.54 7.53 3.02 7.13 3.02 6.31C3.02 5.53 3.61 5.17 4.38 5.17C5.39 5.17 5.94 5.78 6.05 6.76L8.02 6.76C7.81 5.04 6.76 3.72 4.45 3.72ZM11.70 7.46L13.24 7.46L13.24 6.19L11.70 6.19L11.70 4.35L9.77 4.35L9.77 6.19L8.68 6.19L8.68 7.46L9.77 7.46L9.77 11.13C9.77 11.55 9.77 11.87 9.80 12.21C9.88 13.26 10.40 13.73 11.84 13.73C12.28 13.73 12.68 13.71 13.12 13.64L13.12 12.38C12.04 12.46 11.77 12.29 11.72 11.56C11.70 11.37 11.70 11.16 11.70 10.91ZM18.77 13.58L20.66 13.58C20.55 12.75 20.52 12.25 20.52 11.69L20.52 9.28C20.52 8.88 20.51 8.48 20.48 8.13C20.37 6.85 19.59 5.94 17.50 5.94C15.72 5.94 14.36 6.89 14.31 8.57L16.18 8.55C16.24 7.74 16.66 7.29 17.43 7.29C18.19 7.29 18.52 7.67 18.58 8.19C18.61 8.44 18.61 8.67 18.61 8.89L18.61 9.04L18.13 9.04C15.43 9.04 14.03 9.97 14.03 11.61C14.03 13.02 15.13 13.78 16.42 13.78C17.12 13.78 17.75 13.64 18.27 13.29L18.63 12.49ZM17.16 12.42C16.48 12.42 16.03 12.11 16.03 11.45C16.03 10.47 17.07 10.12 18.61 10.23L18.61 10.84C18.61 11.87 17.95 12.42 17.16 12.42ZM26.11 5.95C25.69 5.95 25.20 6.12 24.84 6.45L24.25 7.49L24.25 6.13L22.32 6.13L22.32 13.58L24.25 13.58L24.25 10.16C24.25 8.16 25.05 7.45 26.66 7.56L26.66 6.01C26.49 5.96 26.33 5.95 26.11 5.95ZM29.95 7.46L31.49 7.46L31.49 6.19L29.95 6.19L29.95 4.35L28.01 4.35L28.01 6.19L26.92 6.19L26.92 7.46L28.01 7.46L28.01 11.13C28.01 11.55 28.01 11.87 28.04 12.21C28.13 13.26 28.64 13.73 30.09 13.73C30.52 13.73 30.93 13.71 31.36 13.64L31.36 12.38C30.28 12.46 30.02 12.29 29.96 11.56C29.95 11.37 29.95 11.16 29.95 10.91ZM33.66 3.36C33.03 3.36 32.59 3.78 32.59 4.38C32.59 5.00 33.03 5.40 33.66 5.40C34.29 5.40 34.72 5.00 34.72 4.38C34.72 3.78 34.29 3.36 33.66 3.36ZM34.62 13.58L34.62 6.13L32.69 6.13L32.69 13.58ZM43.36 8.02C43.20 6.72 42.29 5.94 40.71 5.94C40.00 5.94 39.45 6.08 38.92 6.45L38.35 7.34L38.35 6.13L36.41 6.13L36.41 13.58L38.35 13.58L38.35 10.18C38.35 8.11 39.09 7.29 40.03 7.29C40.96 7.29 41.40 7.83 41.45 8.61C41.48 8.99 41.48 9.34 41.48 9.65L41.48 13.58L43.41 13.58L43.41 9.38C43.41 8.78 43.40 8.40 43.36 8.02ZM52.35 6.13L50.41 6.13L50.41 7.13L49.92 6.36C49.55 6.09 48.79 5.94 48.17 5.94C46.26 5.94 44.60 7.24 44.60 9.94C44.60 12.12 45.91 13.62 48.01 13.62C48.76 13.62 49.43 13.43 49.85 13.10L50.41 12.28L50.41 12.46C50.41 12.78 50.41 13.09 50.40 13.37C50.33 14.56 49.60 15.16 48.41 15.16C47.42 15.16 46.77 14.73 46.69 14.04L46.68 13.92L44.80 13.92L44.81 14.06C44.98 15.69 46.20 16.60 48.38 16.60C50.74 16.60 52.25 15.48 52.33 13.16C52.35 12.75 52.35 12.18 52.35 11.72ZM48.48 12.26C47.33 12.26 46.61 11.30 46.61 9.77C46.61 8.06 47.43 7.29 48.55 7.29C49.45 7.29 50.41 7.90 50.41 9.58L50.41 9.79C50.41 11.61 49.55 12.26 48.48 12.26ZM59.25 3.99C58.77 3.93 58.41 3.92 57.85 3.92L54.50 3.92L54.50 13.58L56.43 13.58L56.43 9.94L57.85 9.94C58.41 9.94 58.77 9.93 59.25 9.87C60.65 9.70 61.85 8.71 61.85 6.93C61.85 5.15 60.72 4.16 59.25 3.99ZM58.67 8.37C58.46 8.40 58.17 8.41 57.82 8.41L56.43 8.41L56.43 5.45L57.82 5.45C58.17 5.45 58.46 5.46 58.67 5.49C59.35 5.59 59.82 6.02 59.82 6.93C59.82 7.84 59.35 8.27 58.67 8.37ZM66.65 5.95C66.23 5.95 65.74 6.12 65.38 6.45L64.79 7.49L64.79 6.13L62.86 6.13L62.86 13.58L64.79 13.58L64.79 10.16C64.79 8.16 65.59 7.45 67.20 7.56L67.20 6.01C67.03 5.96 66.88 5.95 66.65 5.95ZM71.47 5.94C68.99 5.94 67.61 7.59 67.61 9.86C67.61 12.11 68.99 13.78 71.47 13.78C73.95 13.78 75.33 12.11 75.33 9.86C75.33 7.59 73.95 5.94 71.47 5.94ZM71.47 12.42C70.31 12.42 69.61 11.45 69.61 9.86C69.61 8.25 70.31 7.29 71.47 7.29C72.63 7.29 73.33 8.25 73.33 9.86C73.33 11.45 72.63 12.42 71.47 12.42ZM77.52 3.36C76.82 3.36 76.45 3.71 76.45 4.38C76.45 5.05 76.82 5.40 77.52 5.40C78.20 5.40 78.57 5.05 78.57 4.38C78.57 3.71 78.20 3.36 77.52 3.36ZM78.47 6.13L76.55 6.13L76.55 13.78C76.55 13.99 76.54 14.22 76.52 14.42C76.45 14.99 76.09 15.18 75.25 15.11L75.25 16.48C75.46 16.51 75.70 16.52 75.96 16.52C77.67 16.52 78.34 15.82 78.44 14.64C78.46 14.39 78.47 14.03 78.47 13.75ZM87.00 9.70C87.00 7.67 85.79 5.94 83.51 5.94C81.23 5.94 79.73 7.60 79.73 9.88C79.73 12.50 81.31 13.78 83.36 13.78C85.11 13.78 86.51 12.89 86.88 11.16L84.95 11.16C84.83 11.96 84.22 12.42 83.40 12.42C82.50 12.42 81.80 11.93 81.68 10.36L86.97 10.36C87.00 10.11 87.00 9.88 87.00 9.70ZM83.43 7.29C84.35 7.29 84.88 7.92 85.01 9.10L81.73 9.10C81.90 7.87 82.53 7.29 83.43 7.29ZM91.55 5.94C89.50 5.94 87.82 7.36 87.82 9.91C87.82 12.49 89.35 13.78 91.38 13.78C93.24 13.78 94.61 12.84 94.93 11.00L93.00 11.00C92.81 11.94 92.25 12.42 91.49 12.42C90.52 12.42 89.82 11.63 89.82 9.79C89.82 8.09 90.52 7.29 91.50 7.29C92.30 7.29 92.86 7.74 93.04 8.82L94.95 8.82C94.81 7.17 93.56 5.94 91.55 5.94ZM98.49 7.46L100.03 7.46L100.03 6.19L98.49 6.19L98.49 4.35L96.56 4.35L96.56 6.19L95.47 6.19L95.47 7.46L96.56 7.46L96.56 11.13C96.56 11.55 96.56 11.87 96.59 12.21C96.67 13.26 97.19 13.73 98.63 13.73C99.06 13.73 99.47 13.71 99.90 13.64L99.90 12.38C98.83 12.46 98.56 12.29 98.50 11.56C98.49 11.37 98.49 11.16 98.49 10.91Z"></path></g><defs data-v-fde0c5aa=""><!----></defs><g data-v-fde0c5aa="" id="9e049fe7-ae73-48ea-8e0f-c04544aee004" stroke="none" fill="#ffffff" transform="matrix(0.36911335587501526,0,0,0.36911335587501526,37.08746488258617,132.28183772755455)"><path d="M9.892 96a1.993 1.993 0 0 1-2-2V2A2.01 2.01 0 0 1 8.908.256a2.01 2.01 0 0 1 2.012.032L87.14 46.28c.596.36.968 1.012.968 1.712 0 .704-.372 1.352-.968 1.712L10.92 95.712A2.006 2.006 0 0 1 9.892 96zm2-90.452v84.916L82.236 48 11.892 5.548z"></path></g><!----></svg>